<svg width="24" height="24" viewBox="0 0 24 24" fill="none" xmlns="http://www.w3.org/2000/svg">
<rect x="10" y="18" width="14" height="2" fill="#FDFAF9"/>
<path d="M11.3899 14.9742C11.4131 14.9768 11.4364 14.9771 11.46 14.9763L13.4434 14.8557C13.467 14.8537 13.4902 14.8458 13.5083 14.8303L22.895 7.35513C22.907 7.34565 22.9169 7.33391 22.9243 7.32058C22.9317 7.30725 22.9364 7.29259 22.9381 7.27745C22.9398 7.2623 22.9385 7.24697 22.9343 7.23232C22.9301 7.21767 22.923 7.204 22.9135 7.19209L21.21 5.05121C21.1905 5.02675 21.1629 5.01191 21.1317 5.00837C21.1005 5.00483 21.0702 5.01312 21.0458 5.0326L15.3383 9.5777L11.6591 12.5077C11.6398 12.5231 11.627 12.5427 11.6198 12.5653L11.0581 14.4716C11.0399 14.5323 11.0366 14.5965 11.0488 14.6587C11.0609 14.7209 11.088 14.7792 11.1277 14.8285C11.1957 14.9112 11.287 14.9625 11.3899 14.9742Z" fill="#FDFAF9"/>
</svg>
